<?xml version="1.0" encoding="UTF-8"?>
<!-- Created with Inkscape by Vulphere (http://www.inkscape.org/) -->
<svg width="90.13473mm" height="90.13473mm" version="1.1" viewBox="0 0 90.13473 90.13473" xmlns="http://www.w3.org/2000/svg">
<title>Steam Deck logo (blue orb)</title>
<desc>Portable gaming console by Valve Corporation</desc>
 <defs>
  <clipPath id="clipPath26">
   <path d="m3654.35 2275.54c136.79 0 247.69 110.89 247.69 247.69 0 136.79-110.9 247.69-247.69 247.69-136.8 0-247.69-110.9-247.69-247.69 0-136.8 110.89-247.69 247.69-247.69z"/>
  </clipPath>
  <linearGradient id="linearGradient32" x2="1" gradientTransform="matrix(569.07,-685.2,685.2,569.07,3346.07,2894.42)" gradientUnits="userSpaceOnUse">
   <stop stop-color="#5b95d6" offset="0"/>
   <stop stop-color="#5946a6" offset="1"/>
  </linearGradient>
 </defs>
 <g transform="translate(-97.45586 -10.10292)">
  <path d="m97.45586 10.10292h90.13472v90.13473h-90.13472v-90.13473" fill="#fff"/>
  <path d="m136.2385 72.65113v-6.282267c1.48485 0.02187 2.9591-0.251884 4.33741-0.805039 1.37795-0.553156 2.63242-1.375128 3.69005-2.417234 1.05763-1.042458 1.89759-2.284589 2.47086-3.654778 0.57361-1.369836 0.86889-2.839861 0.86889-4.325055 0-1.484842-0.29528-2.95522-0.86889-4.325056-0.57327-1.369837-1.41323-2.61232-2.47086-3.654778-1.05763-1.042106-2.3121-1.863725-3.69005-2.417234-1.37831-0.553155-2.85256-0.826911-4.33741-0.805039v-6.274858c4.6348 0 9.0798 1.841147 12.3571 5.118453 3.27731 3.277305 5.11846 7.722306 5.11846 12.35745 0 4.634795-1.84115 9.079795-5.11846 12.3571-3.2773 3.277306-7.7223 5.118806-12.3571 5.118806v0.0095" fill="#1c1a19"/>
  <g transform="matrix(.03527778 0 0 -.03527778 7.321128 144.1987)">
   <g clip-path="url(#clipPath26)">
    <path d="m3654.35 2275.54c136.79 0 247.69 110.89 247.69 247.69 0 136.79-110.9 247.69-247.69 247.69-136.8 0-247.69-110.9-247.69-247.69 0-136.8 110.89-247.69 247.69-247.69" fill="url(#linearGradient32)"/>
   </g>
  </g>
  <path d="m154.2411 46.11836h-0.61878v-0.363714h1.6884v0.363714h-0.6223v1.681339h-0.42933l-0.018-1.681339" fill="#1c1a19"/>
  <path d="m157.753 45.75076v2.048934h-0.41134v-1.302809l-0.54963 1.237545h-0.26176l-0.56056-1.230136v1.288344h-0.393v-2.048933h0.41134l0.69145 1.455561 0.64029-1.455561 0.43321 0.0071" fill="#1c1a19"/>
 </g>
</svg>
